<svg width="20" height="21" viewBox="0 0 20 21" fill="none" xmlns="http://www.w3.org/2000/svg">
<path d="M15.0335 11.7918C14.6835 12.1335 14.4835 12.6252 14.5335 13.1502C14.6085 14.0502 15.4335 14.7085 16.3335 14.7085H17.9168V15.7002C17.9168 17.4252 16.5085 18.8335 14.7835 18.8335H5.21683C3.49183 18.8335 2.0835 17.4252 2.0835 15.7002V10.0918C2.0835 8.36684 3.49183 6.9585 5.21683 6.9585H14.7835C16.5085 6.9585 17.9168 8.36684 17.9168 10.0918V11.2918H16.2335C15.7668 11.2918 15.3418 11.4752 15.0335 11.7918Z" stroke="#6F7376" stroke-width="1.5" stroke-linecap="round" stroke-linejoin="round"/>
<path d="M2.0835 10.8416V7.0333C2.0835 6.04163 2.69183 5.15826 3.61683 4.80826L10.2335 2.30826C11.2668 1.91659 12.3752 2.68329 12.3752 3.79162V6.95828" stroke="#6F7376" stroke-width="1.5" stroke-linecap="round" stroke-linejoin="round"/>
<path d="M18.7992 12.142V13.8587C18.7992 14.317 18.4325 14.692 17.9658 14.7086H16.3325C15.4325 14.7086 14.6075 14.0503 14.5325 13.1503C14.4825 12.6253 14.6825 12.1336 15.0325 11.792C15.3408 11.4753 15.7658 11.292 16.2325 11.292H17.9658C18.4325 11.3087 18.7992 11.6836 18.7992 12.142Z" stroke="#6F7376" stroke-width="1.5" stroke-linecap="round" stroke-linejoin="round"/>
<path d="M5.8335 10.5H11.6668" stroke="#6F7376" stroke-width="1.5" stroke-linecap="round" stroke-linejoin="round"/>
</svg>
