<svg width="22" height="23" viewBox="0 0 22 23" fill="none" xmlns="http://www.w3.org/2000/svg">
<path d="M19.4798 8.92058C17.3623 5.59308 14.264 3.67725 11.0007 3.67725C9.36898 3.67725 7.78315 4.15391 6.33482 5.04308C4.88648 5.94141 3.58482 7.25225 2.52148 8.92058C1.60482 10.3597 1.60482 12.6972 2.52148 14.1364C4.63898 17.4731 7.73732 19.3797 11.0007 19.3797C12.6323 19.3797 14.2182 18.9031 15.6665 18.0139C17.1148 17.1156 18.4165 15.8047 19.4798 14.1364C20.3965 12.7064 20.3965 10.3597 19.4798 8.92058ZM11.0007 15.2364C8.94732 15.2364 7.29732 13.5772 7.29732 11.5331C7.29732 9.48891 8.94732 7.82975 11.0007 7.82975C13.054 7.82975 14.704 9.48891 14.704 11.5331C14.704 13.5772 13.054 15.2364 11.0007 15.2364Z" fill="#B6B8BA"/>
<path d="M10.9992 8.91162C9.56005 8.91162 8.38672 10.085 8.38672 11.5333C8.38672 12.9725 9.56005 14.1458 10.9992 14.1458C12.4384 14.1458 13.6209 12.9725 13.6209 11.5333C13.6209 10.0941 12.4384 8.91162 10.9992 8.91162Z" fill="#B6B8BA"/>
</svg>
