<svg width="17" height="17" viewBox="0 0 17 17" fill="none" xmlns="http://www.w3.org/2000/svg">
<path d="M2.83333 14.1665H14.1667C14.3545 14.1665 14.5347 14.2411 14.6675 14.374C14.8004 14.5068 14.875 14.687 14.875 14.8748C14.875 15.0627 14.8004 15.2429 14.6675 15.3757C14.5347 15.5085 14.3545 15.5832 14.1667 15.5832H2.83333C2.64547 15.5832 2.4653 15.5085 2.33247 15.3757C2.19963 15.2429 2.125 15.0627 2.125 14.8748C2.125 14.687 2.19963 14.5068 2.33247 14.374C2.4653 14.2411 2.64547 14.1665 2.83333 14.1665ZM9.20833 12.0415V3.83476L10.8325 5.45897C10.9661 5.58799 11.1451 5.65939 11.3308 5.65778C11.5165 5.65616 11.6942 5.58167 11.8255 5.45034C11.9568 5.31901 12.0313 5.14135 12.0329 4.95563C12.0345 4.7699 11.9632 4.59098 11.8341 4.45738L9.00079 1.62405C8.93485 1.55843 8.85662 1.50644 8.77058 1.47105C8.68492 1.43505 8.59292 1.4165 8.5 1.4165C8.40707 1.4165 8.31508 1.43505 8.22942 1.47105C8.14338 1.50644 8.06515 1.55843 7.99921 1.62405L5.16587 4.45738C5.09822 4.52272 5.04426 4.60088 5.00714 4.6873C4.97001 4.77372 4.95047 4.86667 4.94966 4.96072C4.94884 5.05478 4.96676 5.14805 5.00238 5.2351C5.03799 5.32215 5.09059 5.40124 5.15709 5.46775C5.2236 5.53425 5.30269 5.58685 5.38974 5.62246C5.47679 5.65808 5.57007 5.676 5.66412 5.67518C5.75817 5.67437 5.85112 5.65483 5.93754 5.6177C6.02396 5.58058 6.10212 5.52662 6.16746 5.45897L7.79167 3.83476V12.0415C7.79167 12.2294 7.86629 12.4095 7.99913 12.5424C8.13197 12.6752 8.31214 12.7498 8.5 12.7498C8.68786 12.7498 8.86803 12.6752 9.00087 12.5424C9.13371 12.4095 9.20833 12.2294 9.20833 12.0415Z" fill="#242C37"/>
</svg>
