<svg width="20" height="21" viewBox="0 0 20 21" fill="none" xmlns="http://www.w3.org/2000/svg">
<path d="M14.9999 6.46651C14.9499 6.45817 14.8916 6.45817 14.8416 6.46651C13.6916 6.42484 12.7749 5.48317 12.7749 4.31651C12.7749 3.12484 13.7332 2.1665 14.9249 2.1665C16.1166 2.1665 17.0749 3.13317 17.0749 4.31651C17.0666 5.48317 16.1499 6.42484 14.9999 6.46651Z" stroke="#6F7376" stroke-width="1.5" stroke-linecap="round" stroke-linejoin="round"/>
<path d="M14.1417 12.5333C15.2834 12.725 16.5417 12.525 17.425 11.9333C18.6 11.15 18.6 9.86664 17.425 9.08331C16.5334 8.49164 15.2584 8.29163 14.1167 8.49163" stroke="#6F7376" stroke-width="1.5" stroke-linecap="round" stroke-linejoin="round"/>
<path d="M4.97539 6.46651C5.02539 6.45817 5.08372 6.45817 5.13372 6.46651C6.28372 6.42484 7.20039 5.48317 7.20039 4.31651C7.20039 3.12484 6.24206 2.1665 5.05039 2.1665C3.85873 2.1665 2.90039 3.13317 2.90039 4.31651C2.90872 5.48317 3.82539 6.42484 4.97539 6.46651Z" stroke="#6F7376" stroke-width="1.5" stroke-linecap="round" stroke-linejoin="round"/>
<path d="M5.83353 12.5333C4.69186 12.725 3.43353 12.525 2.5502 11.9333C1.3752 11.15 1.3752 9.86664 2.5502 9.08331C3.44186 8.49164 4.71686 8.29163 5.85853 8.49163" stroke="#6F7376" stroke-width="1.5" stroke-linecap="round" stroke-linejoin="round"/>
<path d="M9.9999 12.6916C9.9499 12.6833 9.89157 12.6833 9.84157 12.6916C8.69157 12.6499 7.7749 11.7083 7.7749 10.5416C7.7749 9.34994 8.73323 8.3916 9.9249 8.3916C11.1166 8.3916 12.0749 9.35827 12.0749 10.5416C12.0666 11.7083 11.1499 12.6583 9.9999 12.6916Z" stroke="#6F7376" stroke-width="1.5" stroke-linecap="round" stroke-linejoin="round"/>
<path d="M7.5751 15.3168C6.4001 16.1001 6.4001 17.3835 7.5751 18.1668C8.90843 19.0585 11.0918 19.0585 12.4251 18.1668C13.6001 17.3835 13.6001 16.1001 12.4251 15.3168C11.1001 14.4335 8.90843 14.4335 7.5751 15.3168Z" stroke="#6F7376" stroke-width="1.5" stroke-linecap="round" stroke-linejoin="round"/>
</svg>
