<svg width="20" height="21" viewBox="0 0 20 21" fill="none" xmlns="http://www.w3.org/2000/svg">
<mask id="path-1-inside-1_1604_5127" fill="white">
<path d="M12.3757 3.82503V6.9917H11.1257V3.82503C11.1257 3.60003 10.9257 3.4917 10.7923 3.4917C10.7507 3.4917 10.709 3.50003 10.6673 3.5167L4.05898 6.00837C3.61732 6.17503 3.33398 6.5917 3.33398 7.0667V7.62503C2.57565 8.1917 2.08398 9.10003 2.08398 10.125V7.0667C2.08398 6.07503 2.69232 5.1917 3.61732 4.8417L10.234 2.3417C10.4173 2.27503 10.609 2.2417 10.7923 2.2417C11.6257 2.2417 12.3757 2.9167 12.3757 3.82503Z"/>
</mask>
<path d="M12.3757 3.82503V6.9917H11.1257V3.82503C11.1257 3.60003 10.9257 3.4917 10.7923 3.4917C10.7507 3.4917 10.709 3.50003 10.6673 3.5167L4.05898 6.00837C3.61732 6.17503 3.33398 6.5917 3.33398 7.0667V7.62503C2.57565 8.1917 2.08398 9.10003 2.08398 10.125V7.0667C2.08398 6.07503 2.69232 5.1917 3.61732 4.8417L10.234 2.3417C10.4173 2.27503 10.609 2.2417 10.7923 2.2417C11.6257 2.2417 12.3757 2.9167 12.3757 3.82503Z" fill="#B6B8BA"/>
<path d="M12.3757 6.9917V8.4917H13.8757V6.9917H12.3757ZM11.1257 6.9917H9.62565V8.4917H11.1257V6.9917ZM10.6673 3.5167L11.1965 4.92025L11.2105 4.91497L11.2244 4.90941L10.6673 3.5167ZM4.05898 6.00837L3.52978 4.60482L3.5294 4.60496L4.05898 6.00837ZM3.33398 7.62503L4.23187 8.82662L4.83398 8.37668V7.62503H3.33398ZM3.61732 4.8417L3.08715 3.43852L3.08648 3.43877L3.61732 4.8417ZM10.234 2.3417L9.72137 0.932009L9.71257 0.935208L9.70381 0.938517L10.234 2.3417ZM10.8757 3.82503V6.9917H13.8757V3.82503H10.8757ZM12.3757 5.4917H11.1257V8.4917H12.3757V5.4917ZM12.6257 6.9917V3.82503H9.62565V6.9917H12.6257ZM12.6257 3.82503C12.6257 3.21651 12.3367 2.72592 11.9657 2.4187C11.6362 2.14585 11.2163 1.9917 10.7923 1.9917V4.9917C10.5017 4.9917 10.2484 4.89172 10.0523 4.72928C9.81462 4.53248 9.62565 4.20855 9.62565 3.82503H12.6257ZM10.7923 1.9917C10.5455 1.9917 10.3153 2.04195 10.1102 2.12398L11.2244 4.90941C11.1026 4.95812 10.9558 4.9917 10.7923 4.9917V1.9917ZM10.1381 2.11315L3.52978 4.60482L4.58819 7.41191L11.1965 4.92025L10.1381 2.11315ZM3.5294 4.60496C2.4917 4.99655 1.83398 5.98059 1.83398 7.0667H4.83398C4.83398 7.20281 4.74293 7.35352 4.58857 7.41177L3.5294 4.60496ZM1.83398 7.0667V7.62503H4.83398V7.0667H1.83398ZM2.4361 6.42345C1.31305 7.26265 0.583984 8.60947 0.583984 10.125H3.58398C3.58398 9.59059 3.83825 9.12075 4.23187 8.82662L2.4361 6.42345ZM3.58398 10.125V7.0667H0.583984V10.125H3.58398ZM3.58398 7.0667C3.58398 6.6957 3.80922 6.37288 4.14816 6.24463L3.08648 3.43877C1.57542 4.01052 0.583984 5.45436 0.583984 7.0667H3.58398ZM4.14749 6.24488L10.7642 3.74488L9.70381 0.938517L3.08715 3.43852L4.14749 6.24488ZM10.7466 3.75139C10.7563 3.74785 10.7664 3.7452 10.7757 3.74354C10.7851 3.74187 10.791 3.7417 10.7923 3.7417V0.741699C10.431 0.741699 10.066 0.806679 9.72137 0.932009L10.7466 3.75139ZM10.7923 3.7417C10.804 3.7417 10.83 3.74802 10.8533 3.77058C10.863 3.77994 10.868 3.78837 10.8706 3.79424C10.8725 3.79858 10.8757 3.8071 10.8757 3.82503H13.8757C13.8757 2.04246 12.4075 0.741699 10.7923 0.741699V3.7417Z" fill="#B6B8BA" mask="url(#path-1-inside-1_1604_5127)"/>
<path d="M16.1637 13.0505L16.1631 13.0432L16.1624 13.0358C16.1614 13.0256 16.1627 13.0155 16.1669 13.0044C16.1714 12.9922 16.179 12.9806 16.1879 12.9717L16.1951 12.9645L16.2021 12.9572C16.2021 12.9571 16.2025 12.9564 16.206 12.955C16.21 12.9533 16.2211 12.9497 16.2409 12.9497H17.1659V13.1164H16.2909C16.2521 13.1164 16.2129 13.1011 16.1859 13.0782C16.1736 13.0677 16.1677 13.0588 16.1653 13.0545C16.1642 13.0524 16.1639 13.0513 16.1638 13.0511L16.1637 13.0505Z" fill="#B6B8BA" stroke="#B6B8BA" stroke-width="1.5"/>
<path d="M3.78293 8.22582L3.78295 8.22585L3.78852 8.22161C4.18634 7.9185 4.67749 7.7417 5.21732 7.7417H14.784C16.0948 7.7417 17.1673 8.81425 17.1673 10.125V10.4917C17.1673 10.5123 17.1596 10.5325 17.1422 10.5499C17.1248 10.5673 17.1046 10.575 17.084 10.575H16.234C15.5694 10.575 14.9528 10.8367 14.5028 11.2955C13.9134 11.8772 13.6086 12.7574 13.8604 13.6723C14.1732 14.8309 15.2841 15.4917 16.359 15.4917H17.084C17.1046 15.4917 17.1248 15.4994 17.1422 15.5168C17.1596 15.5342 17.1673 15.5544 17.1673 15.575V15.7334C17.1673 17.0442 16.0948 18.1167 14.784 18.1167H5.21732C3.90653 18.1167 2.83398 17.0442 2.83398 15.7334V10.125C2.83398 9.34531 3.20695 8.65622 3.78293 8.22582ZM5.83398 11.9084H11.6673C12.4232 11.9084 13.0423 11.2892 13.0423 10.5334C13.0423 9.77749 12.4232 9.15837 11.6673 9.15837H5.83398C5.0781 9.15837 4.45898 9.77749 4.45898 10.5334C4.45898 11.2892 5.0781 11.9084 5.83398 11.9084Z" fill="#B6B8BA" stroke="#B6B8BA" stroke-width="1.5"/>
</svg>
